<?xml version="1.0" encoding="UTF-8"?><svg xmlns="http://www.w3.org/2000/svg" viewBox="0 0 219.24 174.96"><defs><style>.d{fill:#1d1d1b;}</style></defs><g id="a"/><g id="b"><g id="c"><g><polygon class="d" points="131.76 154.95 120.69 143.88 110.68 153.89 131.76 174.96 163.9 142.82 153.89 132.81 131.76 154.95"/><polygon class="d" points="86.43 109.62 64.29 87.48 86.43 65.35 76.42 55.34 44.27 87.48 76.42 119.62 86.43 109.62"/><polygon class="d" points="187.1 55.34 177.09 65.35 199.22 87.48 177.09 109.62 187.1 119.62 219.24 87.48 187.1 55.34"/><polygon class="d" points="131.76 20.01 153.89 42.15 163.9 32.14 131.76 0 110.68 21.07 120.69 31.08 131.76 20.01"/><polygon class="d" points="109.62 132.81 99.61 142.82 99.08 143.35 98.55 143.88 87.49 154.95 65.35 132.81 55.34 142.82 87.49 174.96 108.56 153.89 109.09 153.36 109.62 152.83 119.63 142.82 109.62 132.81"/><polygon class="d" points="32.15 55.34 0 87.48 32.15 119.62 42.15 109.62 20.02 87.48 42.15 65.35 32.15 55.34"/><polygon class="d" points="132.82 65.35 154.95 87.48 132.82 109.62 142.82 119.62 174.97 87.48 142.82 55.34 132.82 65.35"/><polygon class="d" points="87.49 20.01 98.55 31.08 99.08 31.61 99.61 32.14 109.62 42.15 119.63 32.14 109.62 22.13 109.09 21.6 108.56 21.07 87.49 0 55.34 32.14 65.35 42.15 87.49 20.01"/></g></g></g></svg>