<?xml version="1.0" encoding="utf-8"?>
<!-- Generator: Adobe Illustrator 26.2.1, SVG Export Plug-In . SVG Version: 6.00 Build 0)  -->
<svg version="1.1" id="Calque_1" xmlns="http://www.w3.org/2000/svg" xmlns:xlink="http://www.w3.org/1999/xlink" x="0px" y="0px"
	 viewBox="0 0 219.2 175" style="enable-background:new 0 0 219.2 175;" xml:space="preserve">
<style type="text/css">
	.st0{fill:#FFFFFF;}
</style>
<g id="a">
</g>
<g id="b">
	<g id="c">
		<g>
			<polygon class="st0" points="131.8,154.9 120.7,143.9 110.7,153.9 131.8,175 163.9,142.8 153.9,132.8 			"/>
			<polygon class="st0" points="86.4,109.6 64.3,87.5 86.4,65.3 76.4,55.3 44.3,87.5 76.4,119.6 			"/>
			<polygon class="st0" points="187.1,55.3 177.1,65.3 199.2,87.5 177.1,109.6 187.1,119.6 219.2,87.5 			"/>
			<polygon class="st0" points="131.8,20 153.9,42.1 163.9,32.1 131.8,0 110.7,21.1 120.7,31.1 			"/>
			<polygon class="st0" points="109.6,132.8 99.6,142.8 99.1,143.3 98.6,143.9 87.5,154.9 65.3,132.8 55.3,142.8 87.5,175 
				108.6,153.9 109.1,153.4 109.6,152.8 119.6,142.8 			"/>
			<polygon class="st0" points="32.2,55.3 0,87.5 32.2,119.6 42.2,109.6 20,87.5 42.2,65.3 			"/>
			<polygon class="st0" points="132.8,65.3 154.9,87.5 132.8,109.6 142.8,119.6 175,87.5 142.8,55.3 			"/>
			<polygon class="st0" points="87.5,20 98.6,31.1 99.1,31.6 99.6,32.1 109.6,42.1 119.6,32.1 109.6,22.1 109.1,21.6 108.6,21.1 
				87.5,0 55.3,32.1 65.3,42.1 			"/>
		</g>
	</g>
</g>
</svg>
